<svg width="234" height="94" viewBox="0 0 234 94" fill="none" xmlns="http://www.w3.org/2000/svg">
<g clip-path="url(#clip0_1_363)">
<path d="M115.57 0.522217H112.672C112.605 0.522217 112.551 0.573426 112.551 0.636599V93.8856C112.551 93.9488 112.605 94 112.672 94H115.57C115.637 94 115.692 93.9488 115.692 93.8856V0.636599C115.692 0.573426 115.637 0.522217 115.57 0.522217Z" fill="#F5A020"/>
<path d="M173.34 46.5237V50.6452C173.34 50.6612 173.346 50.6766 173.357 50.6878C173.368 50.6992 173.384 50.7056 173.4 50.7056H199.6C199.617 50.7056 199.632 50.7119 199.643 50.7232C199.655 50.7345 199.661 50.7498 199.661 50.7658V55.5566C199.661 55.5722 199.655 55.5879 199.643 55.5989C199.632 55.6104 199.617 55.6166 199.6 55.6166H168.526C168.509 55.6166 168.494 55.6104 168.483 55.5989C168.472 55.5879 168.465 55.5722 168.465 55.5566V32.4825C168.465 32.4665 168.472 32.4512 168.483 32.4399C168.494 32.4286 168.509 32.4222 168.526 32.4222H199.6C199.617 32.4222 199.632 32.4286 199.643 32.4399C199.655 32.4512 199.661 32.4665 199.661 32.4825V37.2323C199.661 37.2483 199.655 37.2636 199.643 37.2749C199.632 37.2862 199.617 37.2926 199.6 37.2926L173.4 37.3451C173.384 37.3451 173.368 37.3514 173.357 37.3628C173.346 37.3741 173.34 37.3894 173.34 37.4054V41.5036C173.34 41.5196 173.346 41.5349 173.357 41.5462C173.368 41.5575 173.384 41.5639 173.4 41.5639H194.675C194.692 41.5639 194.707 41.5702 194.718 41.5815C194.73 41.5928 194.736 41.6082 194.736 41.6242L194.74 46.3526C194.74 46.3685 194.734 46.3839 194.722 46.3952C194.711 46.4065 194.695 46.4128 194.68 46.4128L173.4 46.4634C173.384 46.4634 173.368 46.4698 173.357 46.4811C173.346 46.4924 173.34 46.5077 173.34 46.5237Z" fill="#D9D9D9"/>
<path d="M207.282 37.4268L207.324 50.5927C207.325 50.668 207.362 50.7056 207.437 50.7056H233.519C233.567 50.7056 233.591 50.7301 233.591 50.7794L233.597 55.5232C233.597 55.5858 233.565 55.6166 233.501 55.6166H202.492C202.427 55.6166 202.395 55.5843 202.395 55.5195V32.5195C202.395 32.4547 202.427 32.4222 202.492 32.4222H233.487C233.556 32.4222 233.591 32.4566 233.591 32.5253L233.598 37.2284C233.598 37.238 233.597 37.2475 233.593 37.2564C233.589 37.2653 233.584 37.2733 233.577 37.28C233.57 37.2867 233.562 37.292 233.553 37.2955C233.544 37.299 233.534 37.3006 233.524 37.3004C227.396 37.2706 221.321 37.2803 215.3 37.3296C212.672 37.3516 210.058 37.3263 207.46 37.2537C207.437 37.2532 207.414 37.2573 207.392 37.2657C207.371 37.2742 207.351 37.2869 207.335 37.303C207.318 37.3191 207.305 37.3384 207.296 37.3596C207.287 37.3809 207.282 37.4037 207.282 37.4268Z" fill="#D9D9D9"/>
<path d="M165.733 49.733V55.5545C165.733 55.5712 165.727 55.5869 165.715 55.5984C165.703 55.6104 165.688 55.6166 165.671 55.6166H134.597C134.581 55.6166 134.565 55.6104 134.553 55.5984C134.542 55.5869 134.535 55.5712 134.535 55.5545L134.537 32.4845C134.537 32.468 134.544 32.4521 134.556 32.4405C134.567 32.4288 134.583 32.4222 134.6 32.4222H165.671C165.688 32.4222 165.703 32.4288 165.715 32.4405C165.727 32.4521 165.733 32.468 165.733 32.4845V38.2554C165.733 38.2713 165.727 38.2867 165.716 38.2982L160.054 43.9562C160.047 43.9621 160.043 43.969 160.04 43.9767C160.036 43.9844 160.034 43.9926 160.034 44.001C160.034 44.0094 160.036 44.0176 160.04 44.0253C160.043 44.033 160.047 44.04 160.054 44.0458L165.716 49.6902C165.727 49.7017 165.733 49.717 165.733 49.733ZM158.377 38.7202C158.687 38.4071 159.277 37.9305 159.646 37.4287C159.689 37.3717 159.675 37.3425 159.603 37.3412L139.54 37.314C139.418 37.314 139.358 37.3749 139.359 37.4968L139.404 41.488C139.405 41.5386 139.431 41.5639 139.482 41.5639H155.405C155.477 41.5639 155.539 41.5386 155.59 41.488C156.527 40.5752 157.457 39.6526 158.377 38.7202ZM155.518 46.4712C155.512 46.465 155.505 46.46 155.497 46.4567C155.489 46.4534 155.481 46.4516 155.472 46.4517L139.47 46.4692C139.453 46.4692 139.437 46.476 139.425 46.488C139.413 46.5001 139.406 46.5164 139.406 46.5334L139.39 50.6414C139.39 50.6584 139.397 50.6747 139.409 50.6868C139.421 50.6988 139.437 50.7056 139.454 50.7056H159.607C159.62 50.7057 159.632 50.7021 159.643 50.6951C159.653 50.6882 159.662 50.6783 159.667 50.6666C159.672 50.655 159.673 50.6421 159.671 50.6297C159.668 50.6172 159.663 50.6057 159.654 50.5966L155.518 46.4712Z" fill="#D9D9D9"/>
<path d="M58.1853 12.6782L57.6566 13.0245C57.5885 13.069 57.5069 13.0874 57.4268 13.0763C57.3467 13.0651 57.2739 13.0253 57.2221 12.9641C56.6305 12.2769 56.1709 11.5099 55.8432 10.6632C55.7574 10.4414 55.8322 10.3137 56.0678 10.28C56.5279 10.2119 56.8515 9.78015 56.8787 9.31334C56.9357 8.37715 56.4693 7.85195 55.4789 7.73785C55.4386 7.73294 55.4019 7.71304 55.3763 7.68233C55.3506 7.65157 55.3375 7.61225 55.3401 7.57251C55.4014 6.61559 55.6103 5.69167 55.9662 4.80086C55.9924 4.73473 56.0406 4.7049 56.1107 4.71139C56.3123 4.72825 56.5075 4.75742 56.6975 4.79891C57.5906 4.98953 58.2026 4.39435 58.0932 3.49964C58.0581 3.21566 57.844 2.99004 57.6974 2.75663C57.6325 2.6516 57.6445 2.55629 57.7325 2.47071C58.423 1.80162 59.2255 1.31407 60.1405 1.00805C60.207 0.986008 60.2641 1.00027 60.3122 1.05084C60.63 1.38344 60.7216 1.75494 61.1446 1.92027C62.3539 2.39096 62.759 1.62268 63.0281 0.61321C63.0491 0.536704 63.0993 0.501045 63.1784 0.506231C64.1557 0.559395 65.0938 0.77983 65.9921 1.16754C66.0623 1.19866 66.0895 1.25182 66.0738 1.32704C65.9958 1.69465 65.8162 2.05837 65.9178 2.41625C66.2319 3.53465 67.226 3.36543 67.9945 2.8286C68.0295 2.80416 68.073 2.79363 68.1159 2.79901C68.1588 2.80439 68.1981 2.82531 68.2264 2.85777C68.8697 3.59559 69.3875 4.4138 69.7801 5.31238C69.7906 5.33594 69.7953 5.36132 69.7947 5.38691C69.7942 5.41249 69.7885 5.43761 69.7775 5.46054C69.766 5.48346 69.7502 5.50367 69.7304 5.51976C69.711 5.53579 69.688 5.54733 69.6633 5.5536C68.117 5.95425 68.4975 8.16575 70.0198 8.13463C70.0533 8.13385 70.0863 8.14022 70.1167 8.15327C70.1476 8.16628 70.1748 8.18576 70.1973 8.2103C70.2198 8.23479 70.2366 8.26383 70.2465 8.29542C70.2565 8.32702 70.2601 8.36039 70.2559 8.39334C70.1444 9.34253 69.9083 10.2567 69.5482 11.1358C69.5194 11.2071 69.4676 11.2337 69.3922 11.2156C68.5499 11.0133 67.616 10.9977 67.4778 12.0792C67.4191 12.5382 67.6783 12.8825 67.9594 13.2267C68.007 13.2851 68.0034 13.3402 67.9473 13.392C67.2103 14.0858 66.3627 14.6012 65.4048 14.9383C65.3728 14.9498 65.3377 14.9483 65.3069 14.934C65.276 14.9198 65.2524 14.8941 65.2414 14.8625C65.0786 14.4151 64.7818 14.1007 64.3499 13.9192C64.2761 13.8868 64.2295 13.9101 64.2096 13.9892L57.2629 41.1146C57.2593 41.1285 57.2619 41.1431 57.2692 41.1555C57.2771 41.1679 57.2896 41.1769 57.3038 41.1807L67.6411 43.861C67.7128 43.8791 67.7395 43.9239 67.7212 43.9952L66.2549 49.6474C66.2512 49.6602 66.2429 49.671 66.2313 49.6776C66.2204 49.6841 66.2067 49.6859 66.1947 49.6825L50.041 45.5123C49.9643 45.4929 49.9356 45.4449 49.9552 45.3684L58.3157 12.7697C58.3198 12.753 58.3188 12.7355 58.3125 12.7194C58.3062 12.7033 58.2958 12.6895 58.2816 12.6796C58.2675 12.6698 58.2507 12.6644 58.2335 12.6641C58.2162 12.6639 58.1994 12.6688 58.1853 12.6782ZM66.302 7.9635C66.302 7.03755 65.933 6.14951 65.277 5.49474C64.6206 4.83999 63.7301 4.47215 62.802 4.47215C61.8738 4.47215 60.9839 4.83999 60.3274 5.49474C59.671 6.14951 59.3024 7.03755 59.3024 7.9635C59.3024 8.88945 59.671 9.77749 60.3274 10.4323C60.9839 11.087 61.8738 11.4548 62.802 11.4548C63.7301 11.4548 64.6206 11.087 65.277 10.4323C65.933 9.77749 66.302 8.88945 66.302 7.9635Z" fill="#F5A020"/>
<path d="M40.4376 20.8712L37.5773 31.1683C37.5719 31.1871 37.5591 31.203 37.542 31.2125C37.5248 31.2219 37.5046 31.2242 37.4857 31.2188L23.1335 27.3016C23.124 27.2991 23.1151 27.2947 23.1073 27.2888C23.0994 27.2828 23.0929 27.2754 23.088 27.2668C23.0831 27.2583 23.0799 27.2489 23.0787 27.2392C23.0775 27.2294 23.0782 27.2196 23.0809 27.2101L24.5198 21.9566C24.5223 21.9471 24.5266 21.9382 24.5326 21.9304C24.5386 21.9226 24.546 21.916 24.5546 21.9112C24.5631 21.9063 24.5725 21.9031 24.5823 21.9019C24.592 21.9007 24.6019 21.9014 24.6114 21.9041L32.7341 24.1195C32.7436 24.1221 32.7535 24.1229 32.7633 24.1217C32.773 24.1204 32.7824 24.1173 32.7909 24.1124C32.7995 24.1075 32.807 24.101 32.8129 24.0931C32.8189 24.0854 32.8232 24.0764 32.8258 24.067L35.6802 13.7622C35.6856 13.7438 35.698 13.7282 35.7148 13.7188C35.7315 13.7094 35.7513 13.7068 35.7699 13.7116L51.6662 17.9595C51.6851 17.965 51.701 17.9777 51.7105 17.9948C51.72 18.0119 51.7223 18.0321 51.7169 18.051L50.3404 23.2987C50.3379 23.3081 50.3335 23.3171 50.3275 23.3248C50.3216 23.3327 50.3141 23.3392 50.3056 23.3441C50.2971 23.349 50.2877 23.3521 50.2779 23.3534C50.2681 23.3546 50.2582 23.3538 50.2488 23.3512L40.5273 20.8188C40.5084 20.814 40.4884 20.8168 40.4716 20.8267C40.4548 20.8365 40.4426 20.8525 40.4376 20.8712Z" fill="#F5A020"/>
<path d="M70.0431 33.2267L80.3495 36.0218C80.3726 36.0282 80.3925 36.0434 80.4045 36.0641C80.4166 36.0848 80.4197 36.1094 80.4139 36.1327L76.2318 51.9652C76.2255 51.9883 76.2103 52.0079 76.1894 52.02C76.1684 52.032 76.1438 52.0354 76.1208 52.0294L70.8854 50.6912C70.8739 50.6882 70.8623 50.683 70.8529 50.6757C70.843 50.6684 70.8346 50.6592 70.8283 50.6487C70.8226 50.6382 70.8184 50.6266 70.8168 50.6145C70.8152 50.6024 70.8158 50.5901 70.8194 50.5784L73.3112 40.9038C73.317 40.8806 73.3138 40.856 73.3018 40.8353C73.2898 40.8145 73.2699 40.7993 73.2468 40.7929L62.9383 37.994C62.9152 37.9876 62.8954 37.9724 62.8833 37.9517C62.8713 37.931 62.8681 37.9064 62.8739 37.8831L66.7346 23.5833C66.7409 23.5602 66.7561 23.5405 66.777 23.5285C66.7974 23.5165 66.8226 23.5132 66.8456 23.5191L72.0941 24.9234C72.1177 24.9298 72.137 24.945 72.1491 24.9657C72.1611 24.9864 72.1648 25.0111 72.1585 25.0343L69.9787 33.1159C69.9729 33.1391 69.9761 33.1637 69.9881 33.1844C70.0002 33.2052 70.0201 33.2204 70.0431 33.2267Z" fill="#F5A020"/>
<path d="M5.58438 25.1231C6.56901 25.551 7.60432 25.1095 7.69986 23.9658C7.70274 23.9304 7.71279 23.896 7.72938 23.8647C7.74592 23.8333 7.7687 23.8057 7.79628 23.7835C7.82382 23.7613 7.85559 23.7449 7.88967 23.7355C7.9237 23.726 7.9593 23.7237 7.99427 23.7285C8.90158 23.8491 9.77832 24.0799 10.6245 24.4209C10.6796 24.4434 10.7237 24.4865 10.7474 24.5411C10.7711 24.5956 10.7725 24.6572 10.7512 24.7127C10.4042 25.6249 10.8234 26.6285 11.923 26.5216C12.0023 26.5138 12.0758 26.4891 12.1433 26.4477L12.7829 26.0431C12.8129 26.0241 12.8487 26.0163 12.884 26.0209C12.9193 26.0255 12.9518 26.0423 12.9759 26.0684C13.6401 26.7958 14.1373 27.6218 14.4675 28.5463C14.4908 28.6138 14.474 28.6682 14.4168 28.7097C14.0365 28.982 13.5862 29.1162 13.4711 29.6628C13.4568 29.7302 13.4835 29.773 13.5511 29.7912L40.6234 36.8069C40.6556 36.815 40.6899 36.81 40.7187 36.793C40.7475 36.7758 40.7686 36.748 40.7774 36.7155L43.4915 26.4671C43.4949 26.4544 43.5008 26.4425 43.5088 26.4321C43.5168 26.4217 43.5268 26.413 43.5382 26.4065C43.5497 26.4 43.5623 26.3958 43.5754 26.3942C43.5884 26.3926 43.6016 26.3936 43.6143 26.3971L49.2452 27.8811C49.2674 27.887 49.2863 27.9015 49.298 27.9215C49.3097 27.9414 49.3131 27.9654 49.3076 27.9881L45.0513 44.1086C45.0476 44.1219 45.0388 44.1334 45.0268 44.1403C45.0147 44.1472 45.0004 44.1491 44.9869 44.1455L12.2642 35.6574C12.2489 35.6537 12.2328 35.6547 12.218 35.6601C12.2032 35.6656 12.1904 35.6753 12.1813 35.6879C12.1722 35.7006 12.1672 35.7156 12.1671 35.731C12.1669 35.7464 12.1716 35.7614 12.1804 35.7741L12.5216 36.2915C12.57 36.3654 12.5897 36.4545 12.5767 36.5416C12.5638 36.6288 12.5192 36.708 12.4514 36.7641C11.7547 37.3437 10.9826 37.795 10.1351 38.1178C10.1012 38.131 10.0649 38.1366 10.0286 38.1344C9.99227 38.1322 9.95683 38.1222 9.92464 38.105C9.89249 38.0879 9.86433 38.064 9.84208 38.035C9.81989 38.006 9.80408 37.9726 9.79586 37.937C9.49171 36.6493 7.83439 36.8477 7.34305 37.9097C7.27285 38.0595 7.28651 38.3396 7.17344 38.5185C7.13444 38.5795 7.07921 38.6074 7.0077 38.6021C6.06531 38.5256 5.15608 38.3117 4.28 37.9603C4.24993 37.9481 4.22479 37.9263 4.20855 37.8985C4.19231 37.8706 4.18589 37.8383 4.19031 37.8066C4.25465 37.3671 4.41063 36.8828 4.2332 36.4801C3.80231 35.4998 2.88397 35.7566 2.18791 36.2778C2.12812 36.3232 2.07222 36.3194 2.02023 36.2662C1.31182 35.5439 0.797081 34.703 0.476024 33.7435C0.455227 33.6799 0.474725 33.6326 0.534515 33.6015C1.35926 33.1755 1.96954 32.1524 1.22278 31.3822C0.938115 31.0904 0.509171 30.9874 0.105572 30.8746C0.0736268 30.8653 0.0457845 30.8456 0.0266429 30.8187C0.0075013 30.7919 -0.00179418 30.7594 0.000286629 30.7267C0.0613787 29.7477 0.28885 28.8096 0.682699 27.9123C0.695933 27.8831 0.72006 27.8603 0.749936 27.8487C0.779806 27.8371 0.813058 27.8375 0.842578 27.85C1.86425 28.2915 3.0731 27.8967 2.72409 26.5702C2.6656 26.3465 2.46867 26.1793 2.38288 25.975C2.32829 25.8493 2.35364 25.7423 2.45893 25.6541C3.18944 25.0446 3.99208 24.5506 4.86687 24.172C4.93186 24.1434 4.98126 24.1603 5.01505 24.2225L5.42451 24.9772C5.46089 25.0434 5.51418 25.092 5.58438 25.1231ZM10.9696 31.1566C10.9696 30.2306 10.6009 29.3426 9.94453 28.6879C9.28818 28.0331 8.39798 27.6652 7.46978 27.6652C7.01021 27.6652 6.55509 27.7555 6.13049 27.931C5.70583 28.1065 5.32002 28.3637 4.99505 28.6879C4.67007 29.0121 4.41227 29.3969 4.23639 29.8205C4.06051 30.2441 3.96999 30.6981 3.96999 31.1566C3.96999 31.6151 4.06051 32.0691 4.23639 32.4927C4.41227 32.9162 4.67007 33.3011 4.99505 33.6253C5.32002 33.9495 5.70583 34.2067 6.13049 34.3822C6.55509 34.5576 7.01021 34.6479 7.46978 34.6479C8.39798 34.6479 9.28818 34.2801 9.94453 33.6253C10.6009 32.9706 10.9696 32.0826 10.9696 31.1566Z" fill="#F5A020"/>
<path d="M13.2456 58.1693L17.5546 42.3815C17.5577 42.3695 17.5632 42.3584 17.5707 42.3486C17.5782 42.3388 17.5876 42.3306 17.5983 42.3245C17.609 42.3184 17.6208 42.3143 17.633 42.3128C17.6453 42.3112 17.6577 42.312 17.6696 42.3153L22.893 43.7021C22.9167 43.7085 22.9369 43.7239 22.9492 43.745C22.9616 43.7661 22.9652 43.7912 22.9593 43.8149L20.3934 53.4641C20.3901 53.4761 20.3893 53.4886 20.3909 53.5007C20.3924 53.5127 20.3965 53.5247 20.4026 53.5351C20.4088 53.5461 20.417 53.5555 20.4268 53.5628C20.4366 53.5701 20.4478 53.5759 20.4597 53.579L30.7251 56.4596C30.7489 56.4664 30.769 56.482 30.781 56.504C30.793 56.5254 30.7961 56.5504 30.7895 56.5745L26.812 70.841C26.8052 70.8651 26.7893 70.8849 26.7677 70.8969C26.7462 70.9089 26.7208 70.9121 26.6969 70.9053L21.4716 69.4545C21.4479 69.4478 21.4278 69.4316 21.4158 69.4102C21.4037 69.3887 21.4006 69.3632 21.4073 69.3397L23.6476 61.2833C23.6542 61.2593 23.6511 61.2342 23.6391 61.2128C23.627 61.1909 23.6069 61.1752 23.5832 61.1684L13.3099 58.2842C13.2862 58.2774 13.2661 58.2612 13.2541 58.2398C13.242 58.2184 13.239 58.1928 13.2456 58.1693Z" fill="#F5A020"/>
<path d="M35.2612 81.809L35.7993 81.4471C35.859 81.4074 35.9312 81.3907 36.0023 81.4006C36.0734 81.41 36.1385 81.4455 36.1854 81.4999C36.8132 82.2195 37.287 83.03 37.6067 83.9308C37.6168 83.9595 37.6207 83.9898 37.6182 84.0196C37.6156 84.0499 37.6067 84.0791 37.5919 84.1052C37.5771 84.1313 37.5569 84.1543 37.5325 84.1726C37.5083 84.1903 37.4803 84.2029 37.4508 84.2091C35.8851 84.5397 36.3881 86.6907 37.9148 86.7534C37.9371 86.7539 37.959 86.7597 37.9791 86.7691C37.9992 86.7785 38.0172 86.7921 38.0319 86.8088C38.0467 86.825 38.0579 86.8443 38.0649 86.8652C38.0719 86.8861 38.0746 86.908 38.0727 86.9299C37.9973 87.8934 37.7764 88.8219 37.4098 89.7155C37.3975 89.7452 37.3757 89.7703 37.3478 89.7865C37.3199 89.8027 37.2875 89.8095 37.2558 89.8048C36.8132 89.7468 36.3472 89.5812 35.9378 89.7484C34.9063 90.1724 35.2222 91.0769 35.7077 91.7887C35.7263 91.8158 35.7347 91.8487 35.7315 91.8816C35.7283 91.914 35.7137 91.9448 35.6901 91.9678C34.9791 92.6577 34.1537 93.1632 33.214 93.4849C33.1464 93.5084 33.0918 93.4906 33.0502 93.4326C32.8493 93.1579 32.6973 92.8859 32.4419 92.6932C31.506 91.9913 30.4804 92.6467 30.3634 93.7105C30.356 93.7778 30.3226 93.8394 30.2705 93.8823C30.2184 93.9251 30.1516 93.946 30.0846 93.9402C29.1123 93.8624 28.1797 93.629 27.2867 93.2399C27.2165 93.2086 27.2003 93.16 27.238 93.0937C27.9944 91.7537 26.5926 90.4487 25.5007 91.5051C25.4707 91.5338 25.4348 91.5568 25.3955 91.5714C25.3561 91.5855 25.3141 91.5918 25.2721 91.5892C25.2301 91.5866 25.1891 91.5756 25.1515 91.5563C25.114 91.537 25.0809 91.5103 25.0542 91.4774C24.468 90.75 23.9812 89.962 23.5939 89.1123C23.585 89.0935 23.5802 89.0726 23.5796 89.0517C23.5791 89.0308 23.5828 89.0099 23.5906 88.9901C23.5984 88.9708 23.6102 88.9525 23.6252 88.9373C23.6402 88.9227 23.658 88.9107 23.6777 88.9024C24.6864 88.4877 24.9652 87.8224 24.5141 86.9069C24.247 86.3623 23.8044 86.2766 23.2487 86.2009C23.2174 86.1962 23.189 86.18 23.1696 86.1555C23.1503 86.1304 23.1416 86.0996 23.1454 86.0683C23.2546 85.0985 23.5042 84.1669 23.8941 83.2733C23.9069 83.2446 23.9289 83.2211 23.9567 83.206C23.9845 83.1908 24.0166 83.1851 24.0482 83.1898C25.0328 83.3297 26.0291 83.431 25.9842 82.0325C25.983 81.9652 25.9627 81.8999 25.9258 81.844L25.489 81.1787C25.4462 81.1139 25.4533 81.0554 25.5105 81.0037C26.2488 80.3269 27.0891 79.823 28.0315 79.4924C28.0595 79.4825 28.0898 79.4825 28.1179 79.4919C28.1461 79.5008 28.1705 79.5185 28.1875 79.5431C28.4663 79.9515 28.5307 80.4277 29.1624 80.4841C29.2143 80.4894 29.2468 80.4669 29.2598 80.4162L36.4155 53.4445C36.4349 53.373 36.4089 53.3275 36.3375 53.3082L26.0934 50.56C26.0063 50.5367 25.9745 50.4809 25.9979 50.3928L27.4934 44.8397C27.497 44.8262 27.5033 44.8135 27.5118 44.8025C27.5203 44.7915 27.531 44.7823 27.5431 44.7754C27.5553 44.7685 27.5687 44.7641 27.5826 44.7625C27.5965 44.7608 27.6106 44.7619 27.624 44.7658L43.7446 49.0681C43.7591 49.0717 43.7716 49.0811 43.7792 49.0942C43.7869 49.1074 43.7892 49.1232 43.7855 49.1382L35.1423 81.7234C35.1379 81.7385 35.1384 81.7552 35.1436 81.7704C35.1489 81.785 35.1587 81.7986 35.1717 81.8074C35.1846 81.8168 35.2002 81.8221 35.2163 81.8226C35.2323 81.8226 35.2479 81.8179 35.2612 81.809ZM34.0991 86.4944C34.0991 85.5685 33.7304 84.6807 33.0741 84.0258C32.4177 83.371 31.5275 83.0033 30.5993 83.0033C29.6711 83.0033 28.7809 83.371 28.1246 84.0258C27.4682 84.6807 27.0995 85.5685 27.0995 86.4944C27.0995 87.4203 27.4682 88.3086 28.1246 88.9635C28.7809 89.6178 29.6711 89.986 30.5993 89.986C31.5275 89.986 32.4177 89.6178 33.0741 88.9635C33.7304 88.3086 34.0991 87.4203 34.0991 86.4944Z" fill="#F5A020"/>
<path d="M80.1638 64.6345L53.1538 57.6697C53.1292 57.6634 53.1036 57.6671 53.0821 57.6791C53.0607 57.6916 53.045 57.712 53.0387 57.7355L50.3246 68.0227C50.3183 68.0462 50.3029 68.0655 50.2817 68.0776C50.2606 68.0896 50.2353 68.0932 50.2115 68.087L44.6059 66.6164C44.5267 66.596 44.4974 66.5459 44.5182 66.467L48.7297 50.4475C48.7338 50.4319 48.7409 50.4173 48.7507 50.4045C48.7604 50.3916 48.7726 50.3809 48.7865 50.3727C48.8005 50.3646 48.8159 50.3593 48.8319 50.3571C48.8479 50.3549 48.8642 50.3559 48.8798 50.36L81.505 58.7799C81.5197 58.7841 81.5349 58.7841 81.5495 58.7799C81.5642 58.7757 81.5773 58.7679 81.5877 58.7569C81.5982 58.746 81.6055 58.7324 81.6087 58.7172C81.6118 58.7026 81.6113 58.6875 81.6066 58.6729C81.4799 58.2702 80.8852 58.0488 81.4464 57.6033C82.1175 57.0702 82.8792 56.6398 83.7314 56.3119C83.7592 56.3014 83.7885 56.2973 83.8178 56.2994C83.8471 56.3014 83.8754 56.3103 83.901 56.3244C83.9267 56.339 83.9487 56.3589 83.9654 56.3829C83.9827 56.4069 83.9937 56.4346 83.9989 56.4633C84.0884 56.9866 84.49 57.3506 85.0323 57.3835C85.8887 57.4378 86.4138 56.9725 86.6075 55.9871C86.6153 55.9463 86.6378 55.9098 86.6708 55.8842C86.7033 55.8591 86.7441 55.8461 86.7849 55.8487C87.7419 55.9061 88.6622 56.1192 89.5458 56.4889C89.6107 56.5161 89.6374 56.5646 89.6259 56.6346C89.4778 57.4864 89.3369 58.5057 90.5148 58.6285C90.9634 58.6749 91.2676 58.4222 91.6146 58.1616C91.6429 58.1397 91.678 58.1292 91.7136 58.1324C91.7492 58.135 91.7816 58.1512 91.8057 58.1773C92.4815 58.8943 92.9909 59.7142 93.3343 60.6375C93.3474 60.6735 93.3474 60.7132 93.3338 60.7487C93.3202 60.7847 93.294 60.814 93.26 60.8322C91.9031 61.5284 91.8816 63.3217 93.5992 63.4966C93.6573 63.5029 93.7107 63.5306 93.7484 63.5744C93.7861 63.6183 93.8055 63.6747 93.8023 63.7321C93.7489 64.6862 93.5317 65.6027 93.1511 66.4806C93.1375 66.5109 93.1144 66.536 93.0851 66.5516C93.0558 66.5673 93.0218 66.5725 92.9893 66.5662C92.6108 66.4942 92.2737 66.2994 91.9031 66.4028C90.7409 66.7276 90.9592 67.735 91.4702 68.5361C91.5105 68.5998 91.5021 68.6567 91.445 68.7074C90.708 69.3544 89.8866 69.8688 88.9804 70.25C88.9569 70.2599 88.9318 70.2646 88.9061 70.2641C88.8805 70.2636 88.8553 70.2573 88.8323 70.2458C88.8093 70.2349 88.7888 70.2187 88.7721 70.1988C88.7559 70.179 88.7438 70.156 88.7365 70.1315C88.3214 68.628 86.2567 68.9115 86.1316 70.4777C86.1295 70.5111 86.1201 70.5435 86.1049 70.5733C86.0892 70.603 86.0677 70.6297 86.0421 70.6511C86.0159 70.6725 85.9856 70.6887 85.9531 70.6981C85.9206 70.708 85.8866 70.7106 85.8531 70.7069C84.9171 70.602 84.0167 70.3665 83.1524 70.0009C83.0849 69.9722 83.0556 69.9226 83.065 69.851C83.1158 69.4661 83.2833 69.0672 83.1509 68.7074C82.953 68.1721 82.5687 67.9115 81.9981 67.9256C81.6123 67.9334 81.3375 68.229 81.0019 68.4175C80.9784 68.4306 80.9517 68.4353 80.9255 68.4311C80.8993 68.4269 80.8752 68.4139 80.858 68.3945C80.1884 67.6551 79.6822 66.8164 79.3388 65.8774C79.3283 65.8466 79.3294 65.8137 79.3414 65.784C79.3535 65.7542 79.3765 65.7296 79.4053 65.7161C79.7576 65.5474 80.0534 65.3181 80.2921 65.0273C80.3183 64.9954 80.3361 64.9578 80.3439 64.9171C80.3518 64.8769 80.3486 64.8351 80.3361 64.7959C80.323 64.7567 80.3005 64.7212 80.2706 64.693C80.2403 64.6648 80.2036 64.645 80.1638 64.6345ZM89.84 63.283C89.84 62.8245 89.7494 62.3702 89.5736 61.9467C89.3982 61.5231 89.1401 61.1383 88.815 60.814C88.4899 60.4897 88.1041 60.2327 87.6796 60.0573C87.255 59.8818 86.8001 59.7915 86.3405 59.7915C85.4123 59.7915 84.5219 60.1591 83.8654 60.814C83.2095 61.4688 82.8404 62.3566 82.8404 63.283C82.8404 64.2089 83.2095 65.0967 83.8654 65.7516C84.5219 66.4064 85.4123 66.7741 86.3405 66.7741C86.8001 66.7741 87.255 66.6837 87.6796 66.5083C88.1041 66.3328 88.4899 66.0759 88.815 65.7516C89.1401 65.4273 89.3982 65.0424 89.5736 64.6189C89.7494 64.1954 89.84 63.741 89.84 63.283Z" fill="#F5A020"/>
<path d="M61.0005 70.3935L58.1422 80.722C58.1401 80.7293 58.137 80.7367 58.1317 80.7429C58.127 80.7492 58.1213 80.7544 58.114 80.7586C58.1071 80.7622 58.0998 80.7649 58.092 80.7659C58.0841 80.7669 58.0757 80.7664 58.0684 80.7643L42.1504 76.5343C42.1427 76.5322 42.1355 76.5286 42.1292 76.5239C42.1229 76.5187 42.1176 76.5129 42.1136 76.5061C42.1096 76.4993 42.107 76.4915 42.106 76.4837C42.1049 76.4758 42.1055 76.468 42.1075 76.4602L43.4821 71.1815C43.4841 71.1737 43.4877 71.1664 43.4925 71.1601C43.4973 71.1539 43.5033 71.1486 43.5103 71.1445C43.5171 71.1408 43.5248 71.1382 43.5326 71.1372C43.5405 71.1361 43.5485 71.1366 43.5562 71.1387L53.3067 73.6652C53.3219 73.6694 53.3387 73.6673 53.3523 73.66C53.3664 73.6522 53.3764 73.6397 53.3811 73.6245L56.2393 63.2981C56.2414 63.2903 56.2451 63.2835 56.2498 63.2772C56.2545 63.2709 56.2608 63.2652 56.2676 63.2615C56.2744 63.2574 56.2817 63.2547 56.2901 63.2537C56.298 63.2527 56.3058 63.2532 56.3137 63.2553L70.695 67.161C70.7023 67.1631 70.7096 67.1667 70.7159 67.1714C70.7222 67.1761 70.7274 67.1824 70.7316 67.1892C70.7358 67.196 70.7384 67.2038 70.7395 67.2116C70.7405 67.2195 70.74 67.2273 70.7379 67.2351L69.2967 72.5216C69.2946 72.5294 69.2915 72.5362 69.2863 72.5425C69.2816 72.5487 69.2758 72.5545 69.2685 72.5581C69.2617 72.5623 69.2543 72.5649 69.2465 72.566C69.2386 72.567 69.2303 72.5665 69.2229 72.5644L61.0748 70.3507C61.067 70.3486 61.0591 70.3481 61.0513 70.3491C61.0434 70.3502 61.0355 70.3528 61.0287 70.357C61.0219 70.3611 61.0157 70.3664 61.0109 70.3726C61.0062 70.3789 61.0026 70.3862 61.0005 70.3935Z" fill="#F5A020"/>
</g>
<defs>
<clipPath id="clip0_1_363">
<rect width="234" height="94" fill="white"/>
</clipPath>
</defs>
</svg>
