<svg width="211" height="18" viewBox="0 0 211 18" fill="none" xmlns="http://www.w3.org/2000/svg">
<path d="M153 2H39.4086H1L10 6.91892H30.5L39.4086 16H90.5L102 6.91892H146.5L153 2Z" fill="#FF6701"/>
<path d="M162.5 6.91892L169 2H184L177.5 6.91892H162.5Z" fill="#FF6701"/>
<path d="M192 6.91892L198 2H206.5L200.5 6.91892H192Z" fill="#FF6701"/>
<path d="M153 2H39.4086H1L10 6.91892H30.5L39.4086 16H90.5L102 6.91892H146.5L153 2Z" stroke="#FF6701" stroke-width="3"/>
<path d="M162.5 6.91892L169 2H184L177.5 6.91892H162.5Z" stroke="#FF6701" stroke-width="3"/>
<path d="M192 6.91892L198 2H206.5L200.5 6.91892H192Z" stroke="#FF6701" stroke-width="3"/>
</svg>
