<svg width="43" height="43" viewBox="0 0 43 43" fill="none" xmlns="http://www.w3.org/2000/svg">
<path d="M34.9375 5.375H30.9062V4.03125C30.9062 3.67487 30.7647 3.33308 30.5127 3.08108C30.2607 2.82907 29.9189 2.6875 29.5625 2.6875C29.2061 2.6875 28.8643 2.82907 28.6123 3.08108C28.3603 3.33308 28.2188 3.67487 28.2188 4.03125V5.375H14.7812V4.03125C14.7812 3.67487 14.6397 3.33308 14.3877 3.08108C14.1357 2.82907 13.7939 2.6875 13.4375 2.6875C13.0811 2.6875 12.7393 2.82907 12.4873 3.08108C12.2353 3.33308 12.0938 3.67487 12.0938 4.03125V5.375H8.0625C7.34973 5.375 6.66615 5.65815 6.16215 6.16215C5.65815 6.66615 5.375 7.34973 5.375 8.0625V34.9375C5.375 35.6503 5.65815 36.3338 6.16215 36.8378C6.66615 37.3419 7.34973 37.625 8.0625 37.625H34.9375C35.6503 37.625 36.3338 37.3419 36.8378 36.8378C37.3419 36.3338 37.625 35.6503 37.625 34.9375V8.0625C37.625 7.34973 37.3419 6.66615 36.8378 6.16215C36.3338 5.65815 35.6503 5.375 34.9375 5.375ZM12.0938 8.0625V9.40625C12.0938 9.76263 12.2353 10.1044 12.4873 10.3564C12.7393 10.6084 13.0811 10.75 13.4375 10.75C13.7939 10.75 14.1357 10.6084 14.3877 10.3564C14.6397 10.1044 14.7812 9.76263 14.7812 9.40625V8.0625H28.2188V9.40625C28.2188 9.76263 28.3603 10.1044 28.6123 10.3564C28.8643 10.6084 29.2061 10.75 29.5625 10.75C29.9189 10.75 30.2607 10.6084 30.5127 10.3564C30.7647 10.1044 30.9062 9.76263 30.9062 9.40625V8.0625H34.9375V13.4375H8.0625V8.0625H12.0938ZM34.9375 34.9375H8.0625V16.125H34.9375V34.9375Z" fill="#D9D9D9"/>
</svg>
