<svg width="459" height="174" viewBox="0 0 459 174" fill="none" xmlns="http://www.w3.org/2000/svg">
<path d="M3 155.123L26.9553 171H440.337L456 164.696V139.947L440.337 128.74V83.9119L456 75.2731V23.207L440.337 12H38.6258L3 36.0485V61.4978L18.0641 69.5V102L3 106.326V155.123Z" fill="#181916" stroke="#FF6701" stroke-width="6"/>
<path d="M13 125.5L5.5 116V149L13 143.5V125.5Z" fill="#FF6701"/>
<path d="M25.5 158.5L16 162L25.5 169H106.5L104 164H78.5L74 160H29.5L25.5 158.5Z" fill="#FF6701"/>
<path d="M13 125.5L5.5 116V149L13 143.5V125.5Z" stroke="#FF6701" stroke-width="6"/>
<path d="M25.5 158.5L16 162L25.5 169H106.5L104 164H78.5L74 160H29.5L25.5 158.5Z" stroke="#FF6701" stroke-width="6"/>
<path d="M336.072 19.5L328 13.7684L439.46 12L455 22.6105V54L445.354 48.5V34.1053L424.864 30L410.873 19.5H373.742H336.072Z" fill="#FF6701" stroke="#FF6701" stroke-width="6"/>
<path d="M161 3L172 10.1111L48 11L53.5 7.74074H65L69 6.25926H91.5L100.5 3H161Z" fill="#FF6701" stroke="#FF6701" stroke-width="6"/>
</svg>
