<svg width="320" height="45" viewBox="0 0 320 45" fill="none" xmlns="http://www.w3.org/2000/svg">
<g filter="url(#filter0_i_1_54980)">
<rect x="317.312" y="15.7168" width="14.9129" height="317.312" transform="rotate(90 317.312 15.7168)" fill="#FF6701"/>
</g>
<rect x="306.047" y="6.82422" width="27.2834" height="13.2559" transform="rotate(59.2395 306.047 6.82422)" fill="#131411"/>
<rect x="278.578" y="0.660156" width="41.4246" height="13.2559" transform="rotate(59.2395 278.578 0.660156)" fill="#131411"/>
<rect x="255.297" y="0.761719" width="41.4246" height="13.2559" transform="rotate(59.2395 255.297 0.761719)" fill="#131411"/>
<rect x="231.691" y="1.07617" width="41.4246" height="13.2559" transform="rotate(59.2395 231.691 1.07617)" fill="#131411"/>
<rect x="208.492" y="1.38281" width="41.4246" height="13.2559" transform="rotate(59.2395 208.492 1.38281)" fill="#131411"/>
<rect x="184.883" y="1.69727" width="41.4246" height="13.2559" transform="rotate(59.2395 184.883 1.69727)" fill="#131411"/>
<rect x="161.688" y="2.00391" width="41.4246" height="13.2559" transform="rotate(59.2395 161.688 2.00391)" fill="#131411"/>
<rect x="138.492" y="2.3125" width="41.4246" height="13.2559" transform="rotate(59.2395 138.492 2.3125)" fill="#131411"/>
<defs>
<filter id="filter0_i_1_54980" x="0" y="9.7168" width="322.312" height="20.9128" filterUnits="userSpaceOnUse" color-interpolation-filters="sRGB">
<feFlood flood-opacity="0" result="BackgroundImageFix"/>
<feBlend mode="normal" in="SourceGraphic" in2="BackgroundImageFix" result="shape"/>
<feColorMatrix in="SourceAlpha" type="matrix" values="0 0 0 0 0 0 0 0 0 0 0 0 0 0 0 0 0 0 127 0" result="hardAlpha"/>
<feOffset dx="5" dy="-6"/>
<feGaussianBlur stdDeviation="8.9"/>
<feComposite in2="hardAlpha" operator="arithmetic" k2="-1" k3="1"/>
<feColorMatrix type="matrix" values="0 0 0 0 0 0 0 0 0 0 0 0 0 0 0 0 0 0 0.25 0"/>
<feBlend mode="normal" in2="shape" result="effect1_innerShadow_1_54980"/>
</filter>
</defs>
</svg>
