<svg width="25" height="26" viewBox="0 0 25 26" fill="none" xmlns="http://www.w3.org/2000/svg">
<path d="M12.5 8.3125C11.5729 8.3125 10.6666 8.58742 9.89576 9.10249C9.12491 9.61756 8.5241 10.3496 8.16931 11.2062C7.81453 12.0627 7.7217 13.0052 7.90257 13.9145C8.08344 14.8238 8.52988 15.659 9.18544 16.3146C9.841 16.9701 10.6762 17.4166 11.5855 17.5974C12.4948 17.7783 13.4373 17.6855 14.2938 17.3307C15.1504 16.9759 15.8824 16.3751 16.3975 15.6042C16.9126 14.8334 17.1875 13.9271 17.1875 13C17.1862 11.7572 16.6919 10.5657 15.8131 9.68686C14.9343 8.80807 13.7428 8.31379 12.5 8.3125ZM12.5 16.125C11.8819 16.125 11.2777 15.9417 10.7638 15.5983C10.2499 15.255 9.8494 14.7669 9.61288 14.1959C9.37635 13.6249 9.31447 12.9965 9.43505 12.3903C9.55562 11.7842 9.85325 11.2273 10.2903 10.7903C10.7273 10.3533 11.2842 10.0556 11.8903 9.93505C12.4965 9.81447 13.1249 9.87635 13.6959 10.1129C14.2669 10.3494 14.755 10.7499 15.0983 11.2638C15.4417 11.7777 15.625 12.3819 15.625 13C15.625 13.8288 15.2958 14.6237 14.7097 15.2097C14.1237 15.7958 13.3288 16.125 12.5 16.125ZM17.1875 2.84375H7.8125C6.36257 2.8453 4.97248 3.42197 3.94722 4.44722C2.92197 5.47248 2.3453 6.86257 2.34375 8.3125V17.6875C2.3453 19.1374 2.92197 20.5275 3.94722 21.5528C4.97248 22.578 6.36257 23.1547 7.8125 23.1562H17.1875C18.6374 23.1547 20.0275 22.578 21.0528 21.5528C22.078 20.5275 22.6547 19.1374 22.6562 17.6875V8.3125C22.6547 6.86257 22.078 5.47248 21.0528 4.44722C20.0275 3.42197 18.6374 2.8453 17.1875 2.84375ZM21.0938 17.6875C21.0938 18.7235 20.6822 19.7171 19.9496 20.4496C19.2171 21.1822 18.2235 21.5938 17.1875 21.5938H7.8125C6.7765 21.5938 5.78293 21.1822 5.05036 20.4496C4.3178 19.7171 3.90625 18.7235 3.90625 17.6875V8.3125C3.90625 7.2765 4.3178 6.28293 5.05036 5.55036C5.78293 4.8178 6.7765 4.40625 7.8125 4.40625H17.1875C18.2235 4.40625 19.2171 4.8178 19.9496 5.55036C20.6822 6.28293 21.0938 7.2765 21.0938 8.3125V17.6875ZM18.75 7.92188C18.75 8.15365 18.6813 8.38022 18.5525 8.57293C18.4237 8.76565 18.2407 8.91585 18.0266 9.00455C17.8124 9.09324 17.5768 9.11645 17.3495 9.07123C17.1222 9.02602 16.9134 8.91441 16.7495 8.75052C16.5856 8.58663 16.474 8.37782 16.4288 8.1505C16.3835 7.92318 16.4068 7.68755 16.4955 7.47342C16.5842 7.25929 16.7344 7.07626 16.9271 6.9475C17.1198 6.81873 17.3463 6.75 17.5781 6.75C17.8889 6.75 18.187 6.87347 18.4068 7.09323C18.6265 7.313 18.75 7.61107 18.75 7.92188Z" fill="#D9D9D9"/>
</svg>
