<svg width="26" height="26" viewBox="0 0 26 26" fill="none" xmlns="http://www.w3.org/2000/svg">
<path fill-rule="evenodd" clip-rule="evenodd" d="M5.41667 1.35352C4.62654 1.35352 3.86878 1.66739 3.31008 2.22609C2.75138 2.7848 2.4375 3.54256 2.4375 4.33268C2.4375 5.12281 2.75138 5.88057 3.31008 6.43927C3.86878 6.99797 4.62654 7.31185 5.41667 7.31185C6.20679 7.31185 6.96455 6.99797 7.52326 6.43927C8.08196 5.88057 8.39583 5.12281 8.39583 4.33268C8.39583 3.54256 8.08196 2.7848 7.52326 2.22609C6.96455 1.66739 6.20679 1.35352 5.41667 1.35352ZM4.0625 4.33268C4.0625 3.97354 4.20517 3.6291 4.45913 3.37514C4.71308 3.12119 5.05752 2.97852 5.41667 2.97852C5.77581 2.97852 6.12025 3.12119 6.37421 3.37514C6.62816 3.6291 6.77083 3.97354 6.77083 4.33268C6.77083 4.69183 6.62816 5.03627 6.37421 5.29022C6.12025 5.54418 5.77581 5.68685 5.41667 5.68685C5.05752 5.68685 4.71308 5.54418 4.45913 5.29022C4.20517 5.03627 4.0625 4.69183 4.0625 4.33268ZM2.4375 8.66602C2.4375 8.45053 2.5231 8.24386 2.67548 8.09149C2.82785 7.93912 3.03451 7.85352 3.25 7.85352H7.58333C7.79882 7.85352 8.00548 7.93912 8.15786 8.09149C8.31023 8.24386 8.39583 8.45053 8.39583 8.66602V22.7493C8.39583 22.9648 8.31023 23.1715 8.15786 23.3239C8.00548 23.4762 7.79882 23.5618 7.58333 23.5618H3.25C3.03451 23.5618 2.82785 23.4762 2.67548 23.3239C2.5231 23.1715 2.4375 22.9648 2.4375 22.7493V8.66602ZM4.0625 9.47852V21.9368H6.77083V9.47852H4.0625ZM10.0208 8.66602C10.0208 8.45053 10.1064 8.24386 10.2588 8.09149C10.4112 7.93912 10.6178 7.85352 10.8333 7.85352H15.1667C15.3822 7.85352 15.5888 7.93912 15.7412 8.09149C15.8936 8.24386 15.9792 8.45053 15.9792 8.66602V9.13618L16.4504 8.9336C17.2629 8.58636 18.1249 8.36886 19.0049 8.28902C22.0112 8.01602 24.6458 10.3777 24.6458 13.411V22.7493C24.6458 22.9648 24.5602 23.1715 24.4079 23.3239C24.2555 23.4762 24.0488 23.5618 23.8333 23.5618H19.5C19.2845 23.5618 19.0778 23.4762 18.9255 23.3239C18.7731 23.1715 18.6875 22.9648 18.6875 22.7493V15.166C18.6875 14.8069 18.5448 14.4624 18.2909 14.2085C18.0369 13.9545 17.6925 13.8118 17.3333 13.8118C16.9742 13.8118 16.6297 13.9545 16.3758 14.2085C16.1218 14.4624 15.9792 14.8069 15.9792 15.166V22.7493C15.9792 22.9648 15.8936 23.1715 15.7412 23.3239C15.5888 23.4762 15.3822 23.5618 15.1667 23.5618H10.8333C10.6178 23.5618 10.4112 23.4762 10.2588 23.3239C10.1064 23.1715 10.0208 22.9648 10.0208 22.7493V8.66602ZM11.6458 9.47852V21.9368H14.3542V15.166C14.3542 14.3759 14.668 13.6181 15.2267 13.0594C15.7854 12.5007 16.5432 12.1868 17.3333 12.1868C18.1235 12.1868 18.8812 12.5007 19.4399 13.0594C19.9986 13.6181 20.3125 14.3759 20.3125 15.166V21.9368H23.0208V13.411C23.0208 11.3483 21.2214 9.71902 19.1533 9.90752C18.4429 9.97215 17.7469 10.1476 17.0907 10.4275L15.4873 11.1154C15.3637 11.1686 15.2287 11.1901 15.0947 11.1782C14.9606 11.1663 14.8316 11.1212 14.7193 11.0471C14.6069 10.973 14.5147 10.8721 14.451 10.7536C14.3873 10.635 14.354 10.5025 14.3542 10.3679V9.47852H11.6458Z" fill="#D9D9D9"/>
</svg>
