<svg width="22" height="20" viewBox="0 0 22 20" fill="none" xmlns="http://www.w3.org/2000/svg">
<path d="M21.694 0.707877C21.5723 0.606196 21.4242 0.538572 21.2657 0.512289C21.1071 0.486006 20.9442 0.502062 20.7944 0.558726L0.890447 8.09325C0.608362 8.19935 0.369545 8.39122 0.209949 8.63997C0.0503527 8.88871 -0.0213845 9.18088 0.0055376 9.47248C0.0324597 9.76408 0.156584 10.0393 0.359223 10.2568C0.561862 10.4742 0.832049 10.6221 1.12911 10.6782L6.2863 11.6577V17.22C6.28529 17.523 6.37837 17.8192 6.55348 18.0704C6.7286 18.3216 6.97768 18.5162 7.26844 18.6288C7.55875 18.7435 7.87801 18.771 8.18471 18.7078C8.49141 18.6446 8.77136 18.4936 8.98816 18.2745L11.4749 15.7798L15.4202 19.12C15.7048 19.3642 16.0719 19.4994 16.4524 19.5C16.6191 19.4999 16.7848 19.4746 16.9435 19.4249C17.2027 19.3454 17.4358 19.2015 17.6197 19.0077C17.8036 18.8138 17.9317 18.5768 17.9914 18.3201L21.9779 1.54484C22.0135 1.39355 22.006 1.23572 21.956 1.08828C21.906 0.940839 21.8154 0.80934 21.694 0.707877ZM15.6893 4.12791L6.89031 10.2232L2.01892 9.29881L15.6893 4.12791ZM7.85772 17.22V12.7093L10.2924 14.7747L7.85772 17.22ZM16.4544 17.98L8.33405 11.0924L20.0215 2.9898L16.4544 17.98Z" fill="#D9D9D9"/>
</svg>
