<svg width="416" height="145" viewBox="0 0 416 145" fill="none" xmlns="http://www.w3.org/2000/svg">
<g filter="url(#filter0_f_2011_437)">
<path d="M10.5 10H43L78 73L43 135H10.5L46 73L10.5 10Z" fill="#5A5A58" fill-opacity="0.5"/>
<path d="M10.5 10H43L78 73L43 135H10.5L46 73L10.5 10Z" stroke="#FF6600" stroke-opacity="0.21"/>
</g>
<g filter="url(#filter1_f_2011_437)">
<path d="M78 10H110.5L145.5 73L110.5 135H78L113.5 73L78 10Z" fill="#5A5A58" fill-opacity="0.6"/>
<path d="M78 10H110.5L145.5 73L110.5 135H78L113.5 73L78 10Z" stroke="#FF6600" stroke-opacity="0.21"/>
</g>
<g filter="url(#filter2_f_2011_437)">
<path d="M145.5 10H178L213 73L178 135H145.5L181 73L145.5 10Z" fill="#5A5A58" fill-opacity="0.7"/>
<path d="M145.5 10H178L213 73L178 135H145.5L181 73L145.5 10Z" stroke="#FF6600" stroke-opacity="0.21"/>
</g>
<g filter="url(#filter3_f_2011_437)">
<path d="M213 10H245.5L280.5 73L245.5 135H213L248.5 73L213 10Z" fill="#5A5A58" fill-opacity="0.8"/>
<path d="M213 10H245.5L280.5 73L245.5 135H213L248.5 73L213 10Z" stroke="#FF6600" stroke-opacity="0.21"/>
</g>
<g filter="url(#filter4_f_2011_437)">
<path d="M280.5 10H313L348 73L313 135H280.5L316 73L280.5 10Z" fill="#5A5A58" fill-opacity="0.9"/>
<path d="M280.5 10H313L348 73L313 135H280.5L316 73L280.5 10Z" stroke="#FF6600" stroke-opacity="0.21"/>
</g>
<path d="M348 10H380.5L415.5 73L380.5 135H348L383.5 73L348 10Z" fill="#5A5A58"/>
<defs>
<filter id="filter0_f_2011_437" x="0.5" y="0" width="87.5" height="145" filterUnits="userSpaceOnUse" color-interpolation-filters="sRGB">
<feFlood flood-opacity="0" result="BackgroundImageFix"/>
<feBlend mode="normal" in="SourceGraphic" in2="BackgroundImageFix" result="shape"/>
<feGaussianBlur stdDeviation="5" result="effect1_foregroundBlur_2011_437"/>
</filter>
<filter id="filter1_f_2011_437" x="70" y="2" width="83.5" height="141" filterUnits="userSpaceOnUse" color-interpolation-filters="sRGB">
<feFlood flood-opacity="0" result="BackgroundImageFix"/>
<feBlend mode="normal" in="SourceGraphic" in2="BackgroundImageFix" result="shape"/>
<feGaussianBlur stdDeviation="4" result="effect1_foregroundBlur_2011_437"/>
</filter>
<filter id="filter2_f_2011_437" x="139.5" y="4" width="79.5" height="137" filterUnits="userSpaceOnUse" color-interpolation-filters="sRGB">
<feFlood flood-opacity="0" result="BackgroundImageFix"/>
<feBlend mode="normal" in="SourceGraphic" in2="BackgroundImageFix" result="shape"/>
<feGaussianBlur stdDeviation="3" result="effect1_foregroundBlur_2011_437"/>
</filter>
<filter id="filter3_f_2011_437" x="209" y="6" width="75.5" height="133" filterUnits="userSpaceOnUse" color-interpolation-filters="sRGB">
<feFlood flood-opacity="0" result="BackgroundImageFix"/>
<feBlend mode="normal" in="SourceGraphic" in2="BackgroundImageFix" result="shape"/>
<feGaussianBlur stdDeviation="2" result="effect1_foregroundBlur_2011_437"/>
</filter>
<filter id="filter4_f_2011_437" x="278.5" y="8" width="71.5" height="129" filterUnits="userSpaceOnUse" color-interpolation-filters="sRGB">
<feFlood flood-opacity="0" result="BackgroundImageFix"/>
<feBlend mode="normal" in="SourceGraphic" in2="BackgroundImageFix" result="shape"/>
<feGaussianBlur stdDeviation="1" result="effect1_foregroundBlur_2011_437"/>
</filter>
</defs>
</svg>
