<svg width="416" height="145" viewBox="0 0 416 145" fill="none" xmlns="http://www.w3.org/2000/svg">
<path d="M68 10H35.5L0.5 73L35.5 135H68L32.5 73L68 10Z" fill="#5A5A58"/>
<g filter="url(#filter0_f_2011_438)">
<path d="M135.5 10H103L68 73L103 135H135.5L100 73L135.5 10Z" fill="#5A5A58" fill-opacity="0.9"/>
<path d="M135.5 10H103L68 73L103 135H135.5L100 73L135.5 10Z" stroke="#FF6600" stroke-opacity="0.21"/>
</g>
<g filter="url(#filter1_f_2011_438)">
<path d="M203 10H170.5L135.5 73L170.5 135H203L167.5 73L203 10Z" fill="#5A5A58" fill-opacity="0.8"/>
<path d="M203 10H170.5L135.5 73L170.5 135H203L167.5 73L203 10Z" stroke="#FF6600" stroke-opacity="0.21"/>
</g>
<g filter="url(#filter2_f_2011_438)">
<path d="M270.5 10H238L203 73L238 135H270.5L235 73L270.5 10Z" fill="#585858" fill-opacity="0.7"/>
<path d="M270.5 10H238L203 73L238 135H270.5L235 73L270.5 10Z" stroke="#FF6600" stroke-opacity="0.21"/>
</g>
<g filter="url(#filter3_f_2011_438)">
<path d="M338 10H305.5L270.5 73L305.5 135H338L302.5 73L338 10Z" fill="#585858" fill-opacity="0.6"/>
<path d="M338 10H305.5L270.5 73L305.5 135H338L302.5 73L338 10Z" stroke="#FF6600" stroke-opacity="0.21"/>
</g>
<g filter="url(#filter4_f_2011_438)">
<path d="M405.5 10H373L338 73L373 135H405.5L370 73L405.5 10Z" fill="#585858" fill-opacity="0.5"/>
<path d="M405.5 10H373L338 73L373 135H405.5L370 73L405.5 10Z" stroke="#FF6600" stroke-opacity="0.21"/>
</g>
<defs>
<filter id="filter0_f_2011_438" x="66" y="8" width="71.5" height="129" filterUnits="userSpaceOnUse" color-interpolation-filters="sRGB">
<feFlood flood-opacity="0" result="BackgroundImageFix"/>
<feBlend mode="normal" in="SourceGraphic" in2="BackgroundImageFix" result="shape"/>
<feGaussianBlur stdDeviation="1" result="effect1_foregroundBlur_2011_438"/>
</filter>
<filter id="filter1_f_2011_438" x="131.5" y="6" width="75.5" height="133" filterUnits="userSpaceOnUse" color-interpolation-filters="sRGB">
<feFlood flood-opacity="0" result="BackgroundImageFix"/>
<feBlend mode="normal" in="SourceGraphic" in2="BackgroundImageFix" result="shape"/>
<feGaussianBlur stdDeviation="2" result="effect1_foregroundBlur_2011_438"/>
</filter>
<filter id="filter2_f_2011_438" x="197" y="4" width="79.5" height="137" filterUnits="userSpaceOnUse" color-interpolation-filters="sRGB">
<feFlood flood-opacity="0" result="BackgroundImageFix"/>
<feBlend mode="normal" in="SourceGraphic" in2="BackgroundImageFix" result="shape"/>
<feGaussianBlur stdDeviation="3" result="effect1_foregroundBlur_2011_438"/>
</filter>
<filter id="filter3_f_2011_438" x="262.5" y="2" width="83.5" height="141" filterUnits="userSpaceOnUse" color-interpolation-filters="sRGB">
<feFlood flood-opacity="0" result="BackgroundImageFix"/>
<feBlend mode="normal" in="SourceGraphic" in2="BackgroundImageFix" result="shape"/>
<feGaussianBlur stdDeviation="4" result="effect1_foregroundBlur_2011_438"/>
</filter>
<filter id="filter4_f_2011_438" x="328" y="0" width="87.5" height="145" filterUnits="userSpaceOnUse" color-interpolation-filters="sRGB">
<feFlood flood-opacity="0" result="BackgroundImageFix"/>
<feBlend mode="normal" in="SourceGraphic" in2="BackgroundImageFix" result="shape"/>
<feGaussianBlur stdDeviation="5" result="effect1_foregroundBlur_2011_438"/>
</filter>
</defs>
</svg>
