<svg width="773" height="107" viewBox="0 0 773 107" fill="none" xmlns="http://www.w3.org/2000/svg">
<g filter="url(#filter0_i_370_1453)">
<rect x="766" y="36.3442" width="36" height="766" transform="rotate(90 766 36.3442)" fill="#FF6701"/>
</g>
<rect x="738.801" y="14.8789" width="65.8628" height="32" transform="rotate(59.2395 738.801 14.8789)" fill="#1D1A16"/>
<rect x="672.498" width="100" height="32" transform="rotate(59.2395 672.498 0)" fill="#1C1B17"/>
<rect x="616.302" y="0.243164" width="100" height="32" transform="rotate(59.2395 616.302 0.243164)" fill="#1A1A17"/>
<rect x="559.308" y="1" width="100" height="32" transform="rotate(59.2395 559.308 1)" fill="#181916"/>
<rect x="503.312" y="1.74268" width="100" height="32" transform="rotate(59.2395 503.312 1.74268)" fill="#181916"/>
<rect x="446.317" y="2.49951" width="100" height="32" transform="rotate(59.2395 446.317 2.49951)" fill="#181916"/>
<rect x="390.322" y="3.24268" width="100" height="32" transform="rotate(59.2395 390.322 3.24268)" fill="#181916"/>
<rect x="334.327" y="3.98584" width="100" height="32" transform="rotate(59.2395 334.327 3.98584)" fill="#181916"/>
<defs>
<filter id="filter0_i_370_1453" x="0" y="30.3442" width="771" height="42" filterUnits="userSpaceOnUse" color-interpolation-filters="sRGB">
<feFlood flood-opacity="0" result="BackgroundImageFix"/>
<feBlend mode="normal" in="SourceGraphic" in2="BackgroundImageFix" result="shape"/>
<feColorMatrix in="SourceAlpha" type="matrix" values="0 0 0 0 0 0 0 0 0 0 0 0 0 0 0 0 0 0 127 0" result="hardAlpha"/>
<feOffset dx="5" dy="-6"/>
<feGaussianBlur stdDeviation="8.9"/>
<feComposite in2="hardAlpha" operator="arithmetic" k2="-1" k3="1"/>
<feColorMatrix type="matrix" values="0 0 0 0 0 0 0 0 0 0 0 0 0 0 0 0 0 0 0.25 0"/>
<feBlend mode="normal" in2="shape" result="effect1_innerShadow_370_1453"/>
</filter>
</defs>
</svg>
