<svg width="79" height="79" viewBox="0 0 79 79" fill="none" xmlns="http://www.w3.org/2000/svg">
<path d="M39.5 0C61.3152 0 79 17.6848 79 39.5C79 61.3152 61.3152 79 39.5 79C17.6848 79 0 61.3152 0 39.5C5.15408e-07 17.6848 17.6848 5.15475e-07 39.5 0ZM44.3604 19.75C37.234 19.75 34.7256 23.3425 34.7256 29.3838V33.8301H30.2832V41.2363H34.7256V62.7256H43.6172V41.2354H49.5498L50.3359 33.8291H43.6172L43.627 30.123C43.627 28.1916 43.8108 27.1562 46.585 27.1562H50.2939V19.75H44.3604Z" fill="#CFCFCF"/>
</svg>
