<svg width="1595" height="344" viewBox="0 0 1595 344" fill="none" xmlns="http://www.w3.org/2000/svg">
<path d="M2 0V57.7427L84.0246 102.13H1592L1534.5 192.5H1484H1435.5L1397 249.433H1348.9L1288 302.5" stroke="#CFCFCF" stroke-width="3"/>
<path d="M1277 318C1277 322.971 1272.97 327 1268 327C1263.03 327 1259 322.971 1259 318C1259 313.029 1263.03 309 1268 309C1272.97 309 1277 313.029 1277 318Z" fill="#CFCFCF"/>
<path d="M1268 293.5C1281.53 293.5 1292.5 304.469 1292.5 318C1292.5 331.531 1281.53 342.5 1268 342.5C1254.47 342.5 1243.5 331.531 1243.5 318C1243.5 304.469 1254.47 293.5 1268 293.5Z" stroke="#CFCFCF" stroke-width="3"/>
</svg>
