<svg width="84" height="84" viewBox="0 0 84 84" fill="none" xmlns="http://www.w3.org/2000/svg">
<path d="M42 49.35C38.0625 49.35 34.65 46.2 34.65 42C34.65 38.0625 37.8 34.65 42 34.65C45.9375 34.65 49.35 37.8 49.35 42C49.35 45.9375 45.9375 49.35 42 49.35Z" fill="#CFCFCF"/>
<path fill-rule="evenodd" clip-rule="evenodd" d="M50.925 24.15H33.075C30.975 24.4125 29.925 24.675 29.1375 24.9375C28.0875 25.2 27.3 25.725 26.5125 26.5125C25.8894 27.1356 25.5949 27.7588 25.2391 28.512C25.1453 28.7105 25.047 28.9185 24.9375 29.1375C24.8969 29.2593 24.85 29.3874 24.7997 29.5247C24.5251 30.275 24.15 31.2999 24.15 33.075V50.925C24.4125 53.025 24.675 54.075 24.9375 54.8625C25.2 55.9125 25.725 56.7 26.5125 57.4875C27.1356 58.1106 27.7588 58.4051 28.512 58.7609C28.7106 58.8548 28.9184 58.9529 29.1375 59.0625C29.2593 59.1031 29.3874 59.15 29.5247 59.2002C30.275 59.4749 31.2999 59.85 33.075 59.85H50.925C53.025 59.5875 54.075 59.325 54.8625 59.0625C55.9125 58.8 56.7 58.275 57.4875 57.4875C58.1106 56.8644 58.4051 56.2412 58.7609 55.488C58.8548 55.2894 58.953 55.0816 59.0625 54.8625C59.1031 54.7407 59.15 54.6126 59.2003 54.4753C59.4749 53.725 59.85 52.7001 59.85 50.925V33.075C59.5875 30.975 59.325 29.925 59.0625 29.1375C58.8 28.0875 58.275 27.3 57.4875 26.5125C56.8644 25.8894 56.2412 25.5949 55.488 25.2391C55.2897 25.1453 55.0813 25.0469 54.8625 24.9375C54.7407 24.8969 54.6126 24.85 54.4753 24.7997C53.725 24.5251 52.7001 24.15 50.925 24.15ZM42 30.7125C35.7 30.7125 30.7125 35.7 30.7125 42C30.7125 48.3 35.7 53.2875 42 53.2875C48.3 53.2875 53.2875 48.3 53.2875 42C53.2875 35.7 48.3 30.7125 42 30.7125ZM56.175 30.45C56.175 31.8997 54.9997 33.075 53.55 33.075C52.1003 33.075 50.925 31.8997 50.925 30.45C50.925 29.0002 52.1003 27.825 53.55 27.825C54.9997 27.825 56.175 29.0002 56.175 30.45Z" fill="#CFCFCF"/>
<path fill-rule="evenodd" clip-rule="evenodd" d="M0 42C0 18.804 18.804 0 42 0C65.196 0 84 18.804 84 42C84 65.196 65.196 84 42 84C18.804 84 0 65.196 0 42ZM33.075 20.2125H50.925C53.2875 20.475 54.8625 20.7375 56.175 21.2625C57.75 22.05 58.8 22.575 60.1125 23.8875C61.425 25.2 62.2125 26.5125 62.7375 27.825C63.2625 29.1375 63.7875 30.7125 63.7875 33.075V50.925C63.525 53.2875 63.2625 54.8625 62.7375 56.175C61.95 57.75 61.425 58.8 60.1125 60.1125C58.8 61.425 57.4875 62.2125 56.175 62.7375C54.8625 63.2625 53.2875 63.7875 50.925 63.7875H33.075C30.7125 63.525 29.1375 63.2625 27.825 62.7375C26.25 61.95 25.2 61.425 23.8875 60.1125C22.575 58.8 21.7875 57.4875 21.2625 56.175C20.7375 54.8625 20.2125 53.2875 20.2125 50.925V33.075C20.475 30.7125 20.7375 29.1375 21.2625 27.825C22.05 26.25 22.575 25.2 23.8875 23.8875C25.2 22.575 26.5125 21.7875 27.825 21.2625C29.1375 20.7375 30.7125 20.2125 33.075 20.2125Z" fill="#CFCFCF"/>
</svg>
