<svg width="84" height="84" viewBox="0 0 84 84" fill="none" xmlns="http://www.w3.org/2000/svg">
<path fill-rule="evenodd" clip-rule="evenodd" d="M42 84C18.804 84 0 65.196 0 42C0 18.804 18.804 0 42 0C65.196 0 84 18.804 84 42C84 65.196 65.196 84 42 84ZM43.8161 31.5194C40.0545 33.084 32.5365 36.3223 21.2623 41.2343C19.4315 41.9623 18.4725 42.6745 18.3852 43.371C18.2376 44.5479 19.7115 45.0114 21.7186 45.6425C21.9916 45.7283 22.2744 45.8173 22.5644 45.9115C24.5391 46.5534 27.1953 47.3043 28.5762 47.3342C29.8287 47.3612 31.2268 46.8448 32.7702 45.785C43.3041 38.6743 48.7417 35.0802 49.0831 35.0027C49.324 34.9481 49.6577 34.8793 49.8839 35.0803C50.11 35.2813 50.0878 35.662 50.0638 35.7641C49.9178 36.3865 44.1323 41.7653 41.1383 44.5488C40.2049 45.4166 39.5428 46.0321 39.4074 46.1727C39.1043 46.4876 38.7953 46.7855 38.4983 47.0717C36.6638 48.8402 35.2881 50.1664 38.5744 52.332C40.1537 53.3727 41.4175 54.2333 42.6782 55.0919C44.0551 56.0296 45.4284 56.9648 47.2052 58.1295C47.6579 58.4262 48.0902 58.7345 48.5113 59.0347C50.1137 60.177 51.5532 61.2033 53.3317 61.0396C54.3652 60.9445 55.4326 59.9728 55.9747 57.0746C57.2559 50.2254 59.7743 35.3852 60.3563 29.27C60.4073 28.7342 60.3432 28.0485 60.2917 27.7475C60.2401 27.4465 60.1325 27.0176 59.7412 26.7002C59.2779 26.3242 58.5625 26.2449 58.2426 26.2502C56.788 26.2761 54.5563 27.0521 43.8161 31.5194Z" fill="#CFCFCF"/>
</svg>
