<svg width="453" height="279" viewBox="0 0 453 279" fill="none" xmlns="http://www.w3.org/2000/svg">
<path d="M205.536 70.587L317.429 102.831L304 107L213.5 82.5L205.536 70.587Z" fill="#CFCFCF"/>
<path d="M541.789 117.209L353.732 153.083L317.429 102.831M317.429 102.831L205.536 70.587M317.429 102.831L304 107L213.5 82.5L205.536 70.587M7.0007 74.6131L93.6437 38.3434L205.536 70.587" stroke="#CFCFCF" stroke-width="2"/>
<circle cx="13.5" cy="72.5" r="13.5" fill="#CFCFCF"/>
<circle cx="116.5" cy="176.5" r="8.5" fill="#CFCFCF"/>
<path d="M442.5 277.5L337 263L269 212L120 177" stroke="#CFCFCF" stroke-width="2"/>
<path d="M312.998 235.998L303 235.998L328.5 256L324.999 246.498L312.998 235.998Z" fill="#CFCFCF" stroke="#CFCFCF" stroke-width="2"/>
</svg>
