<svg width="62" height="54" viewBox="0 0 62 54" fill="none" xmlns="http://www.w3.org/2000/svg">
<path d="M41.1252 16.6127C42.0045 15.6341 43.6286 15.4612 44.7522 16.227C45.8758 16.9928 46.0738 18.4075 45.1946 19.3862L30.4514 35.7953C30.4482 35.7989 30.4439 35.8016 30.4407 35.8051C30.4025 35.847 30.3617 35.8872 30.3196 35.9272C30.3015 35.9444 30.2834 35.9614 30.2649 35.978C30.2572 35.9848 30.2512 35.9937 30.2434 36.0004C30.2173 36.0232 30.1883 36.0423 30.1614 36.0639C30.1297 36.0893 30.0985 36.1153 30.0657 36.1391C30.0339 36.1621 30.0007 36.183 29.968 36.2045C29.9333 36.2273 29.8993 36.2508 29.8635 36.2719C29.8135 36.3014 29.7619 36.3278 29.7102 36.3539C29.6938 36.3622 29.6779 36.3714 29.6614 36.3793C29.6012 36.4082 29.5399 36.4341 29.4778 36.4584C29.4635 36.464 29.4492 36.4697 29.4348 36.475C29.374 36.4977 29.3125 36.5181 29.2502 36.5366C29.2333 36.5416 29.2165 36.5475 29.1995 36.5522C29.1443 36.5674 29.0884 36.5793 29.0325 36.5912C29.0042 36.5973 28.976 36.6036 28.9475 36.6088C28.8982 36.6178 28.8488 36.6248 28.7991 36.6313C28.7681 36.6353 28.7373 36.6399 28.7063 36.643C28.6472 36.6488 28.5879 36.6525 28.5286 36.6547C28.508 36.6555 28.4876 36.6563 28.467 36.6567C28.4045 36.6577 28.342 36.6556 28.2795 36.6528C28.2577 36.6518 28.2359 36.6523 28.2141 36.6508C28.1615 36.6472 28.1092 36.6406 28.0569 36.6342C28.0243 36.6302 27.9917 36.6266 27.9592 36.6215C27.9038 36.6129 27.849 36.6021 27.7942 36.5903C27.7718 36.5854 27.7491 36.582 27.7268 36.5766C27.6669 36.5622 27.6079 36.545 27.5491 36.5268C27.5272 36.52 27.5053 36.5136 27.4836 36.5063C27.4308 36.4885 27.3791 36.4677 27.3274 36.4467C27.3014 36.4362 27.2749 36.4268 27.2493 36.4155C27.1898 36.3892 27.1319 36.36 27.0745 36.3295C27.0608 36.3223 27.047 36.3155 27.0334 36.308C26.9742 36.2753 26.9172 36.239 26.8606 36.2016C26.849 36.194 26.8359 36.1879 26.8245 36.1801C26.8212 36.1779 26.818 36.1755 26.8147 36.1733C26.7677 36.1408 26.7229 36.1055 26.678 36.0698C26.656 36.0524 26.6336 36.0359 26.6125 36.018C26.6053 36.0118 26.5972 36.0067 26.5901 36.0004L16.2571 27.0004C15.2482 26.1217 15.2482 24.6965 16.2571 23.8178C17.266 22.9395 18.9017 22.9392 19.9104 23.8178L28.1799 31.02L41.1252 16.6127Z" fill="#CFCFCF"/>
</svg>
