<svg width="394" height="188" viewBox="0 0 394 188" fill="none" xmlns="http://www.w3.org/2000/svg">
<path d="M129 27.5L121.5 34.3037L237.5 17.7737L231 13L129 27.5Z" fill="#CFCFCF"/>
<path d="M376.5 41.5L271 13L237.5 17.7737M14 13L71 41.5L121.5 34.3037M121.5 34.3037L129 27.5L231 13L237.5 17.7737M121.5 34.3037L237.5 17.7737" stroke="#CFCFCF" stroke-width="2"/>
<path d="M237.5 125.793L305.366 152L302 155.5L240 131L237.5 125.793Z" fill="#CFCFCF"/>
<path d="M396 187L237.5 125.793M20 82L137 132L222.5 120L237.5 125.793M237.5 125.793L240 131L302 155.5L305.366 152" stroke="#CFCFCF" stroke-width="2"/>
<circle cx="13.5" cy="13.5" r="13.5" fill="#CFCFCF"/>
<circle cx="19.5" cy="81.5" r="13.5" fill="#CFCFCF"/>
</svg>
