<svg width="134" height="697" viewBox="0 0 134 697" fill="none" xmlns="http://www.w3.org/2000/svg">
<path d="M0 697L0 641.148L64.008 581L127 641.148V697L64.008 635.993L0 697Z" fill="#5A5A58" fill-opacity="0.5"/>
<path d="M1 581L1 525.148L65.512 465L129 525.148V581L65.512 519.993L1 581Z" fill="#5A5A58" fill-opacity="0.6"/>
<path d="M3 465L3 408.667L67.008 348L130 408.667V465L67.008 403.467L3 465Z" fill="#5A5A58" fill-opacity="0.7"/>
<path d="M4 348L4 292.148L68.008 232L131 292.148V348L68.008 286.993L4 348Z" fill="#5A5A58" fill-opacity="0.8"/>
<path d="M5 232L5 176.148L69.512 116L133 176.148V232L69.512 170.993L5 232Z" fill="#5A5A58" fill-opacity="0.9"/>
<path d="M7 116L7 60.1481L71.008 0L134 60.1481V116L71.008 54.9926L7 116Z" fill="#5A5A58"/>
</svg>
