<svg width="280" height="314" viewBox="0 0 280 314" fill="none" xmlns="http://www.w3.org/2000/svg">
<path d="M151 27.5L158.5 34.3037L42.5 17.7737L49 13L151 27.5Z" fill="#CFCFCF"/>
<path d="M-96.5 41.5L9 13L42.5 17.7737M266 13L209 41.5L158.5 34.3037M158.5 34.3037L151 27.5L49 13L42.5 17.7737M158.5 34.3037L42.5 17.7737" stroke="#CFCFCF" stroke-width="2"/>
<circle cx="13.5" cy="13.5" r="13.5" transform="matrix(-1 0 0 1 280 0)" fill="#CFCFCF"/>
<path d="M40.2289 218.72L-20.3196 259.05L-16.2737 261.735L38.9203 224.347L40.2289 218.72Z" fill="#CFCFCF"/>
<path d="M-101.182 312.91L40.2289 218.72M243.014 128.708L139.676 202.939L53.6116 209.807L40.2289 218.72M40.2289 218.72L38.9203 224.347L-16.2737 261.735L-20.3196 259.05" stroke="#CFCFCF" stroke-width="2"/>
<circle cx="13.5" cy="13.5" r="13.5" transform="matrix(-0.976101 0.217317 0.217317 0.976101 253.637 112)" fill="#CFCFCF"/>
</svg>
